<?xml version="1.0" encoding="UTF-8" standalone="no"?>
<!-- Creator: CorelDRAW X6 -->

<svg
   xmlns:dc="http://purl.org/dc/elements/1.1/"
   xmlns:cc="http://creativecommons.org/ns#"
   xmlns:rdf="http://www.w3.org/1999/02/22-rdf-syntax-ns#"
   xmlns:svg="http://www.w3.org/2000/svg"
   xmlns="http://www.w3.org/2000/svg"
   xmlns:sodipodi="http://sodipodi.sourceforge.net/DTD/sodipodi-0.dtd"
   xmlns:inkscape="http://www.inkscape.org/namespaces/inkscape"
   xml:space="preserve"
   width="2741.7737"
   height="1102.3394"
   version="1.1"
   style="fill-rule:evenodd"
   viewBox="0 0 77378.947 31110.466"
   id="svg2"
   inkscape:version="0.48.5 r10040"
   sodipodi:docname="Logo-Wingo-orange.svg"><metadata
     id="metadata19"><rdf:RDF><cc:Work
         rdf:about=""><dc:format>image/svg+xml</dc:format><dc:type
           rdf:resource="http://purl.org/dc/dcmitype/StillImage" /></cc:Work></rdf:RDF></metadata><sodipodi:namedview
     pagecolor="#ffffff"
     bordercolor="#666666"
     borderopacity="1"
     objecttolerance="10"
     gridtolerance="10"
     guidetolerance="10"
     inkscape:pageopacity="0"
     inkscape:pageshadow="2"
     inkscape:window-width="640"
     inkscape:window-height="480"
     id="namedview17"
     showgrid="false"
     fit-margin-top="0.2"
     fit-margin-right="0.2"
     fit-margin-left="0.2"
     fit-margin-bottom="0.2"
     inkscape:zoom="0.063432805"
     inkscape:cx="1370.8682"
     inkscape:cy="551.16243"
     inkscape:window-x="0"
     inkscape:window-y="31"
     inkscape:window-maximized="0"
     inkscape:current-layer="svg2" /><defs
     id="defs4"><style
       type="text/css"
       id="style6">
    .fil0 {fill:url(#id0)}
   </style><linearGradient
       id="id0"
       gradientUnits="userSpaceOnUse"
       x1="53377"
       y1="58712.102"
       x2="53377"
       y2="44440.602"><stop
         offset="0"
         style="stop-color:#EF7F1A"
         id="stop9" /><stop
         offset="1"
         style="stop-color:#FBBF44"
         id="stop11" /></linearGradient></defs><g
     id="Capa_x0020_1"
     transform="translate(-13811.053,-36944.564)"><metadata
       id="CorelCorpID_0Corel-Layer" /><path
       class="fil0"
       d="m 46115,47449 c 257,-93 524,-217 800,-371 196,-109 384,-228 566,-357 -40,380 -5,729 107,1048 -640,432 -1347,718 -2123,858 l -120,218 c -1110,2011 -2081,3725 -2933,5152 -852,1417 -1823,2873 -2923,4349 -1090,1476 -2130,2675 -3121,3567 -981,902 -2233,1722 -3412,2306 -3102,1512 -6387,958 -7571,-2663 -159,-485 -252,-1017 -281,-1595 l -59,59 c -2420,2421 -4792,6137 -8719,4671 -1010,-377 -1727,-1095 -2147,-2154 -654,-1645 -434,-4023 753,-7104 596,-1547 2011,-4320 4181,-8362 2170,-4042 3408,-6238 3656,-6618 347,-532 832,-812 1516,-812 l 3271,0 c 783,0 1003,426 614,1248 -226,477 -1443,2737 -3567,6807 -2126,4074 -3390,6446 -3696,7153 -933,2156 -1357,3676 -1357,4528 0,793 309,1111 892,1070 1558,-111 2395,-1311 2839,-1783 466,-495 1000,-1210 1605,-2140 613,-942 1088,-1715 1437,-2328 345,-606 831,-1462 1427,-2566 l 6034,-11176 c 295,-546 793,-812 1516,-812 l 3331,0 c 367,0 607,108 703,337 92,217 39,525 -149,912 -120,247 -1278,2507 -3497,6777 -951,1829 -1721,3313 -2311,4452 -358,692 -722,1368 -1060,2049 -632,1276 -1173,2572 -1416,4039 -206,1244 -134,2360 595,2360 2725,0 7171,-4082 11461,-12246 -1001,-565 -1684,-1367 -2041,-2408 -357,-1050 -406,-2051 -149,-3022 258,-971 783,-1813 1565,-2536 783,-733 1714,-1090 2774,-1090 1070,0 1892,416 2467,1258 585,842 684,1932 317,3270 -109,505 -466,1298 -1070,2378 l -706,1279 z m -8148,14541 20364,0 c -509,475 -849,1055 -1022,1743 l -21691,0 c 836,-485 1622,-1086 2348,-1743 z M 52059,44590 c -29,-399 23,-662 63,-1032 l 425,-3252 c 45,-321 91,-649 148,-967 110,-614 166,-742 662,-731 137,3 297,28 482,51 296,37 937,165 1235,296 170,75 238,177 230,380 -35,907 -304,2083 -344,3136 2451,-1812 4965,-2995 7462,-3937 10471,-3948 26545,-718 28552,11983 2256,14280 -14154,15018 -24325,13297 l -25,54 c -42,76 -66,113 -108,187 -618,1087 -1410,2117 -2084,2702 -1944,1685 -4390,1809 -5804,-143 -502,-693 -660,-1508 -483,-2447 181,-956 664,-1717 1452,-2290 632,-460 1556,-874 2431,-922 984,-54 2120,209 3064,466 88,-175 465,-1004 704,-1543 233,-523 390,-878 476,-1062 l 4,-9 4,-9 c -793,693 -1613,1060 -2463,1107 -719,40 -1319,-144 -1804,-554 -481,-410 -782,-1022 -895,-1839 -32,-221 -42,-457 -32,-706 -1126,1665 -2239,2763 -3337,3296 -445,216 -881,322 -1305,322 -885,0 -1466,-356 -1749,-1067 -280,-712 -174,-1728 326,-3050 339,-847 1000,-2139 1982,-3884 110,-225 144,-369 106,-428 -38,-64 -140,-76 -305,-34 -585,157 -1360,784 -2317,1881 -962,1097 -1779,2385 -2461,3867 -402,851 -686,1478 -843,1885 -106,258 -216,436 -322,546 -106,106 -254,161 -436,161 l -1449,0 c -390,0 -559,-169 -508,-508 54,-452 220,-1069 497,-1853 -301,349 -621,691 -961,1024 -407,398 -847,720 -1326,966 -483,250 -949,373 -1402,373 -885,0 -1470,-356 -1749,-1067 -284,-712 -174,-1728 322,-3050 182,-449 546,-1199 1093,-2249 542,-1051 1042,-1978 1487,-2783 449,-809 703,-1267 771,-1372 140,-233 352,-347 631,-347 l 1813,0 c 157,0 258,47 305,144 42,93 25,225 -55,390 -51,106 -546,1072 -1491,2897 -945,1826 -1470,2847 -1576,3071 -106,233 -208,474 -305,733 -93,254 -174,517 -241,788 -68,267 -80,491 -38,665 42,174 140,258 297,258 318,0 690,-178 1118,-538 432,-360 834,-792 1211,-1292 377,-500 682,-923 923,-1267 771,-1095 1197,-2150 1786,-3327 589,-1186 945,-1872 1059,-2054 140,-233 352,-347 631,-347 l 1800,0 c 157,0 263,47 309,144 51,93 34,225 -47,390 -17,34 -119,216 -301,551 -182,335 -424,792 -729,1372 -309,580 -593,1139 -860,1686 335,-462 686,-911 1055,-1343 373,-436 809,-885 1313,-1356 500,-466 1029,-843 1588,-1123 555,-280 1089,-424 1593,-424 530,0 932,102 1211,305 275,203 407,470 394,796 -13,326 -114,686 -313,1084 -17,25 -212,390 -580,1097 -364,707 -720,1389 -1059,2050 -339,657 -555,1080 -644,1271 -267,546 -449,1008 -546,1389 -102,381 -123,652 -64,813 59,161 165,241 322,241 313,0 686,-178 1118,-538 432,-360 834,-788 1216,-1284 381,-500 690,-923 932,-1275 237,-352 398,-602 483,-750 190,-335 360,-659 528,-1004 11,-22 21,-44 32,-65 l 0,0 c 232,-443 461,-859 734,-1263 14,-20 27,-41 41,-61 14,-20 28,-40 42,-61 14,-20 28,-40 42,-60 l 0,0 c 14,-20 28,-40 43,-60 l 0,0 c 14,-20 29,-40 43,-60 14,-20 29,-40 43,-60 l 0,0 c 15,-20 29,-40 44,-59 15,-20 29,-40 44,-59 l 0,0 c 15,-20 30,-39 45,-59 15,-20 30,-39 45,-59 l 0,0 c 15,-20 30,-39 46,-59 l 0,0 c 15,-19 31,-39 46,-58 15,-19 31,-39 47,-58 l 0,0 c 16,-19 31,-39 47,-58 l 0,0 c 16,-19 32,-39 47,-58 16,-19 32,-38 48,-58 l 0,0 c 16,-19 32,-38 48,-57 16,-19 32,-38 49,-57 l 0,0 c 16,-19 33,-38 49,-57 16,-19 33,-38 50,-57 l 0,0 c 17,-19 33,-38 50,-56 17,-19 34,-38 51,-56 17,-19 34,-37 51,-56 17,-19 34,-37 51,-56 17,-19 34,-37 52,-56 17,-18 35,-37 52,-55 17,-18 35,-37 53,-55 18,-18 35,-37 53,-55 18,-18 36,-36 54,-55 18,-18 36,-36 54,-54 18,-18 36,-36 54,-54 1167,-1155 2372,-1764 3620,-1833 1045,-58 1745,324 2103,1140 228,-483 350,-732 358,-741 152,-242 357,-368 624,-382 l 1696,-93 c 326,-18 415,138 276,468 -2265,5429 -3814,9127 -4652,11096 l -760,1860 c 308,40 637,78 708,85 960,102 1977,106 2856,172 4791,361 13917,-258 15181,-6074 145,-668 298,-1551 356,-2411 l 5,6 0,-7 0,-2 0,-5 0,-3 0,-4 0,-5 0,-2 0,-7 0,0 0,-7 0,-1 0,-6 0,-3 0,-4 0,-5 0,-2 0,-6 0,-1 0,-7 0,-1 0,-6 0,-2 0,-5 0,-4 0,-3 0,-6 0,-1 0,-7 0,0 0,-7 0,-2 0,-5 0,-4 0,-3 0,-5 0,-2 0,-7 0,0 0,-7 0,-2 0,-5 0,-3 0,-4 0,-5 0,-2 0,-7 0,0 0,-7 0,-1 0,-6 0,-3 0,-4 0,-5 0,-2 0,-6 0,-1 0,-7 0,-1 0,-6 0,-2 0,-5 0,-4 0,-3 0,-6 0,-1 0,-7 0,0 0,-7 0,-2 0,-5 0,-4 0,-3 0,-5 0,-2 0,-7 0,0 0,-7 0,-2 0,-5 0,-3 0,-4 0,-5 0,-2 0,-7 0,0 0,-7 0,-1 0,-6 0,-3 0,-4 0,-5 0,-2 0,-6 0,-1 0,-7 0,-1 0,-6 0,-2 0,-5 0,-4 0,-3 0,-6 0,-1 0,-7 0,0 0,-7 0,-2 0,-5 0,-4 0,-3 0,-5 0,-2 0,-7 0,0 0,-7 c 9,-360 -3,-708 -43,-1026 l 0,0 c -10,-104 -21,-207 -34,-310 -1,-5 -1,-9 -2,-14 -13,-100 -27,-200 -42,-299 -1,-7 -2,-14 -3,-21 -16,-97 -32,-194 -51,-291 -2,-9 -3,-18 -5,-27 -18,-95 -38,-190 -59,-285 -2,-10 -4,-20 -7,-30 -21,-94 -44,-187 -68,-281 l -8,-31 c -24,-93 -49,-186 -76,-278 l -9,-31 c -27,-93 -55,-185 -85,-277 l -9,-28 c -30,-93 -62,-185 -95,-277 -3,-8 -6,-15 -8,-23 -34,-94 -69,-187 -105,-279 -2,-5 -4,-11 -6,-16 -37,-95 -76,-189 -116,-283 l -4,-9 c -503,-1174 -1220,-2276 -2119,-3281 -3,-3 -5,-6 -8,-9 -68,-76 -138,-152 -208,-227 -9,-9 -17,-19 -26,-28 -66,-70 -133,-140 -201,-209 -14,-14 -27,-28 -41,-42 -65,-66 -131,-131 -198,-196 -17,-17 -34,-33 -51,-50 -65,-62 -130,-124 -197,-185 -20,-19 -40,-38 -61,-56 -65,-59 -130,-118 -196,-176 -23,-20 -46,-41 -69,-61 -65,-57 -130,-113 -196,-169 -25,-21 -50,-43 -76,-64 -65,-54 -131,-108 -197,-162 -27,-22 -54,-44 -82,-65 -66,-52 -132,-105 -199,-156 -28,-22 -57,-44 -86,-65 -67,-51 -134,-101 -202,-151 -30,-22 -61,-44 -91,-67 -67,-49 -135,-97 -203,-145 -32,-22 -64,-45 -96,-67 -68,-47 -137,-94 -206,-141 -33,-22 -66,-44 -99,-65 -70,-46 -139,-92 -210,-137 -33,-21 -67,-42 -100,-63 -71,-45 -143,-90 -215,-134 -33,-20 -67,-40 -101,-60 -73,-44 -147,-88 -221,-131 -33,-19 -66,-38 -100,-57 -76,-44 -152,-87 -228,-130 -31,-17 -63,-34 -94,-51 -80,-44 -159,-87 -240,-130 -26,-14 -52,-27 -78,-40 -87,-46 -174,-91 -262,-135 -4,-2 -9,-4 -13,-6 -311,-156 -630,-305 -955,-446 -24,-10 -47,-21 -71,-31 -77,-33 -155,-65 -233,-98 -44,-18 -87,-37 -131,-55 -71,-29 -144,-57 -216,-86 -51,-20 -102,-41 -154,-61 -69,-26 -138,-52 -207,-78 -56,-21 -112,-42 -168,-62 -67,-24 -135,-48 -203,-72 -59,-21 -117,-41 -176,-61 -67,-23 -134,-45 -201,-67 -61,-20 -122,-40 -184,-60 -66,-21 -133,-42 -200,-62 -63,-19 -126,-39 -190,-58 -66,-20 -133,-39 -199,-58 -65,-19 -130,-37 -195,-55 -66,-18 -132,-36 -198,-54 -67,-18 -134,-36 -201,-53 -66,-17 -131,-33 -197,-50 -68,-17 -137,-34 -206,-50 -66,-16 -132,-31 -198,-46 -70,-16 -139,-31 -209,-47 -66,-14 -132,-28 -198,-42 -71,-15 -142,-29 -212,-43 -66,-13 -133,-26 -200,-39 -72,-14 -144,-27 -217,-39 -66,-12 -133,-23 -199,-35 -73,-12 -146,-24 -220,-36 -67,-11 -133,-21 -200,-31 -75,-11 -149,-22 -224,-32 -66,-9 -132,-19 -199,-27 -77,-10 -153,-19 -230,-28 -65,-8 -131,-16 -196,-23 -78,-9 -157,-17 -235,-25 -65,-7 -130,-13 -196,-20 -80,-7 -160,-14 -240,-20 -65,-5 -129,-11 -194,-16 -82,-6 -164,-11 -246,-16 -63,-4 -127,-9 -190,-12 -87,-5 -174,-8 -261,-12 -59,-3 -119,-6 -178,-8 -97,-4 -194,-6 -291,-8 -51,-1 -101,-3 -152,-4 -148,-3 -296,-4 -445,-4 -64,0 -128,0 -192,1 l -6,0 c -61,1 -123,1 -184,2 l -16,0 c -58,1 -117,2 -175,4 l -24,1 c -54,1 -108,3 -162,5 l -42,1 c -47,2 -94,3 -141,5 l -62,3 c -40,2 -80,4 -121,5 -28,1 -55,3 -83,4 -33,2 -67,3 -100,5 -34,2 -69,4 -103,6 -27,2 -55,3 -82,5 -38,2 -76,5 -113,7 -9,-2 -18,-2 -27,2 -1051,72 -2075,213 -3065,417 -13,2 -26,5 -39,8 l -2,0 c -37,8 -74,16 -111,23 -26,6 -53,11 -79,17 -29,6 -58,13 -86,19 -34,8 -68,15 -102,23 -23,5 -45,10 -68,15 -40,9 -80,18 -120,28 -22,5 -44,10 -65,15 -35,8 -70,17 -104,25 -27,7 -54,13 -81,20 -27,7 -54,14 -81,20 -29,7 -58,15 -87,22 -33,8 -66,17 -98,25 -22,6 -43,11 -65,17 -40,11 -81,22 -121,32 -19,5 -39,10 -58,16 -41,11 -82,22 -122,34 l -63,18 c -27,8 -54,15 -80,23 -25,7 -51,15 -76,22 -36,11 -72,21 -108,32 -18,5 -36,11 -54,16 -44,13 -88,27 -132,40 l -46,14 c -47,15 -94,29 -141,44 l -40,13 c -29,9 -58,19 -87,28 l -10,3 c -57,19 -115,37 -172,57 l -38,13 c -47,16 -93,32 -140,48 l -43,15 c -47,16 -94,33 -141,49 l -36,13 c -89,32 -178,64 -267,97 l -23,9 c -52,19 -103,39 -155,59 l -28,11 c -51,20 -102,40 -153,60 l -24,9 c -89,35 -177,71 -265,107 l -9,4 c -56,23 -111,46 -166,70 l -18,8 c -55,23 -110,47 -165,71 l -6,3 c -148,65 -295,131 -440,198 l -4,2 c -56,26 -113,53 -169,80 l -6,3 c -405,194 -800,400 -1182,617 l -1,0 c -756,363 -1537,763 -2359,1202 909,409 1899,758 2608,1155 177,99 229,210 204,394 -44,322 -270,936 -392,1208 -77,170 -139,320 -208,438 -249,429 -387,410 -969,183 -301,-118 -605,-249 -902,-378 l -2701,-1171 c -832,-394 -1428,-624 -1551,-1259 z m 12841,13343 c 554,-31 1108,-379 1665,-1038 553,-658 1085,-1630 1583,-2908 854,-2134 965,-3350 333,-3650 -109,-49 -237,-72 -385,-64 -520,29 -1089,412 -1697,1154 -608,742 -1135,1658 -1571,2742 -208,542 -371,1039 -490,1495 -115,452 -178,854 -193,1203 -15,349 43,617 167,805 129,188 325,275 587,260 z m -3243,8135 c 487,-8 929,-245 1330,-663 398,-415 822,-1089 1267,-2026 -26,-7 -99,-28 -228,-64 -125,-35 -211,-56 -263,-70 -52,-14 -138,-35 -258,-62 -124,-28 -223,-43 -308,-51 -85,-8 -188,-20 -312,-34 -128,-15 -251,-20 -383,-21 -127,-1 -263,2 -403,9 -685,38 -1188,339 -1516,902 -277,475 -326,925 -137,1365 201,468 603,724 1210,714 z m -17917,-19740 979,-2699 c 152,-560 335,-1159 136,-1505 -461,-803 -2462,391 -2100,2659 97,604 379,1131 985,1545 z m 4573,252 c 76,-470 305,-877 686,-1216 377,-339 796,-508 1250,-508 457,0 822,169 1101,508 275,339 377,746 305,1216 -76,479 -301,890 -678,1228 -377,339 -796,508 -1262,508 -462,0 -830,-169 -1101,-508 -275,-339 -373,-750 -301,-1228 z m 23024,7722 c 589,-1533 1504,-2838 2749,-3923 1245,-1084 2457,-1627 3630,-1627 606,0 1114,161 1529,479 411,318 703,737 873,1258 169,521 225,1131 161,1826 -59,695 -241,1406 -538,2135 678,-157 1267,-428 1762,-813 496,-385 995,-1021 1500,-1906 161,-233 343,-288 559,-174 216,119 275,309 174,585 -411,902 -1021,1669 -1830,2300 -805,635 -1733,1059 -2775,1275 -703,1288 -1546,2300 -2537,3024 -987,729 -1978,1093 -2969,1093 -1258,0 -2110,-517 -2546,-1550 -441,-1034 -352,-2364 258,-3982 z m 5003,-1703 c 0,589 148,1067 449,1440 297,373 737,559 1326,559 l 110,0 c 381,-635 648,-1288 801,-1949 157,-661 165,-1216 34,-1656 -131,-445 -402,-665 -809,-665 -496,0 -936,237 -1326,707 -390,470 -585,991 -585,1563 z m -1847,1466 c -521,1135 -741,2038 -652,2720 85,678 428,1017 1025,1017 385,0 830,-191 1330,-563 504,-377 940,-864 1313,-1461 -813,-55 -1457,-301 -1932,-737 -474,-436 -737,-962 -788,-1584 -34,68 -85,169 -148,305 -68,136 -119,237 -148,305 z"
       id="path15"
       inkscape:connector-curvature="0"
       style="fill:url(#id0)" /></g></svg>